<svg width="70" height="70" viewBox="0 0 70 70" fill="none" xmlns="http://www.w3.org/2000/svg">
  <g clip-path="url(#clip0_9_48)">
    <path d="M35 0.5C54.0538 0.5 69.5 15.9462 69.5 35C69.5 54.0538 54.0538 69.5 35 69.5C15.9462 69.5 0.5 54.0538 0.5 35C0.5 15.9462 15.9462 0.5 35 0.5Z" fill="#313131" stroke="white"/>
    <path d="M35 37.1875C41.0406 37.1875 45.9375 32.2906 45.9375 26.25C45.9375 20.2094 41.0406 15.3125 35 15.3125C28.9594 15.3125 24.0625 20.2094 24.0625 26.25C24.0625 32.2906 28.9594 37.1875 35 37.1875Z" fill="white"/>
    <path d="M17.5 56.875C17.5 47.2062 25.3312 39.375 35 39.375C44.6688 39.375 52.5 47.2062 52.5 56.875V59.0625H17.5V56.875Z" fill="white"/>
  </g>
  <defs>
    <clipPath id="clip0_9_48">
      <rect width="70" height="70" fill="white"/>
    </clipPath>
  </defs>
</svg>
